<?xml version="1.0" encoding="utf-8"?>
<!-- Generator: Adobe Illustrator 27.8.1, SVG Export Plug-In . SVG Version: 6.00 Build 0)  -->
<svg version="1.1" id="圖層_1" xmlns="http://www.w3.org/2000/svg" xmlns:xlink="http://www.w3.org/1999/xlink" x="0px" y="0px"
	 viewBox="0 0 30 30" style="enable-background:new 0 0 30 30;" xml:space="preserve">
<style type="text/css">
	.st0{fill:#4EEB90;}
</style>
<g>
	<path class="st0" d="M15,28.9C7.3,28.9,1.1,22.7,1.1,15S7.3,1.1,15,1.1S28.9,7.3,28.9,15S22.7,28.9,15,28.9z M15,2.1
		C7.9,2.1,2.1,7.9,2.1,15S7.9,27.9,15,27.9S27.9,22.1,27.9,15S22.1,2.1,15,2.1z"/>
	<g>
		<path class="st0" d="M14.3,25.6v-2.1c-1.3-0.1-2.3-0.4-3.1-0.7c-0.8-0.3-1.5-0.9-2.1-1.6c-0.6-0.8-0.9-1.7-1-2.8l2.6-0.4
			c0.2,1.1,0.5,2,1.1,2.5c0.7,0.8,1.6,1.2,2.6,1.3V15c-1.1-0.2-2.1-0.5-3.2-1c-0.8-0.4-1.4-0.9-1.9-1.6c-0.4-0.7-0.7-1.4-0.7-2.3
			c0-1.5,0.6-2.7,1.9-3.6c0.9-0.6,2.1-1,3.8-1.1v-1h1.5v1c1.5,0.1,2.7,0.5,3.5,1.1c1.1,0.8,1.8,1.8,2,3.2l-2.6,0.3
			c-0.2-0.8-0.5-1.5-0.9-1.9c-0.5-0.4-1.1-0.7-2-0.9v6.1c1.3,0.3,2.1,0.5,2.6,0.6c0.8,0.3,1.4,0.6,1.9,1.1c0.5,0.4,0.9,0.9,1.2,1.5
			c0.3,0.6,0.4,1.2,0.4,1.9c0,1.5-0.6,2.7-1.7,3.7c-1.1,1-2.6,1.5-4.4,1.6v2.1H14.3z M14.3,7.1c-1,0.1-1.8,0.5-2.4,1
			c-0.6,0.5-0.9,1.2-0.9,1.9c0,0.7,0.2,1.3,0.7,1.8c0.5,0.5,1.3,0.9,2.5,1.2V7.1z M15.8,21.7c1-0.1,1.8-0.5,2.5-1.1
			c0.6-0.6,1-1.4,1-2.3c0-0.8-0.2-1.4-0.7-1.8c-0.5-0.5-1.4-0.9-2.7-1.2V21.7z"/>
	</g>
</g>
</svg>
