<?xml version="1.0" encoding="utf-8"?>
<!-- Generator: Adobe Illustrator 27.8.1, SVG Export Plug-In . SVG Version: 6.00 Build 0)  -->
<svg version="1.1" xmlns="http://www.w3.org/2000/svg" xmlns:xlink="http://www.w3.org/1999/xlink" x="0px" y="0px"
	 viewBox="0 0 80 80" style="enable-background:new 0 0 80 80;" xml:space="preserve">
<style type="text/css">
	.st0{display:none;}
	.st1{display:inline;fill:#FFFFFF;}
	.st2{fill:#FFFFFF;}
</style>
<g id="圖層_1" class="st0">
	<path class="st1" d="M45.7,42.1c-3.8,0-7.6,0-11.5,0c-0.3,1.3-0.6,2.8-0.9,4.3c-0.6,3.1-1.2,6.1-1.9,9.2c-0.3,1.2-1.3,1.8-2.5,1.7
		c-1.1-0.1-2-1-2.1-2.1c0-0.6,0.1-1.2,0.3-1.8c0.8-3.9,1.6-7.8,2.4-11.8c0-0.2,0-0.3,0-0.5c-4.1-1-8-2.5-11.8-4.6
		c-0.4,0.6-0.9,1.1-1.3,1.7c-2.3,3-4.6,6.1-7,9.1c-0.7,0.9-1.6,1.2-2.6,1c-0.9-0.3-1.5-0.9-1.7-1.9C5.3,45.6,5.6,45,6,44.4
		c2.5-3.2,4.9-6.4,7.4-9.7c0.2-0.2,0.4-0.5,0.6-0.7c-1.4-1.2-2.9-2.4-4.3-3.7c-1.3-1.2-2.5-2.5-3.6-3.8c-1-1.1-0.9-2.5,0.1-3.3
		c1-0.8,2.4-0.7,3.4,0.3c3.2,3.6,6.8,6.8,11,9.1c6.7,3.8,13.9,5.3,21.6,4.9c8.8-0.4,16.5-3.4,23.2-9.1c1.8-1.5,3.4-3.3,5-5
		c0.5-0.5,1.1-0.9,1.8-0.9c1,0,1.7,0.4,2.1,1.2c0.4,0.9,0.4,1.8-0.3,2.5c-1.8,1.8-3.6,3.6-5.4,5.4c-0.2,0.2-0.5,0.4-0.7,0.6
		c2.1,4.1,4.2,8.2,6.3,12.3c0.7,1.4,0.3,2.7-0.9,3.3c-1.2,0.6-2.6,0.1-3.2-1.2c-1.8-3.6-3.7-7.2-5.5-10.8c-0.1-0.3-0.3-0.5-0.4-0.8
		c-4.3,2.8-8.9,4.8-13.9,5.9c0.3,1.7,0.7,3.3,1,4.9c0.6,2.8,1.2,5.7,1.7,8.5c0.2,1.1-0.3,2.1-1.4,2.6c-1,0.4-2.2,0.1-2.7-0.8
		c-0.2-0.4-0.4-0.9-0.5-1.3c-0.9-4.2-1.7-8.3-2.6-12.5C45.8,42.3,45.8,42.2,45.7,42.1z"/>
</g>
<g id="圖層_2">
	<g>
		<path class="st2" d="M3,39.2c0.7-1.1,1.4-2.3,2.3-3.3c4.5-5.5,9.8-10.1,16.2-13.3c4.4-2.2,9-3.6,13.9-4.1c9.5-0.9,18.1,1.6,26,6.9
			c5.1,3.4,9.4,7.7,13.1,12.6c0.9,1.2,0.9,2.5,0,3.7c-4.3,5.6-9.3,10.4-15.4,14c-5.1,3-10.5,4.9-16.3,5.4
			c-8.5,0.8-16.4-1.2-23.7-5.5c-6.1-3.6-11-8.4-15.3-14c-0.3-0.4-0.4-0.8-0.7-1.2C3,40,3,39.6,3,39.2z M38.5,24.6
			c-8.2,0.2-14.8,7.1-14.7,15.6C24,48.5,31,55.1,39.5,54.9c8.2-0.2,14.8-7.2,14.7-15.6C54,31.1,47,24.5,38.5,24.6z"/>
		<path class="st2" d="M39,31.6c4.4,0,8.1,3.6,8.1,8c0,4.6-3.7,8.3-8.2,8.3c-4.4,0-8.1-3.7-8.1-8.1C30.8,35.3,34.5,31.6,39,31.6z"/>
	</g>
</g>
</svg>
