<?xml version="1.0" encoding="utf-8"?>
<!-- Generator: Adobe Illustrator 27.8.1, SVG Export Plug-In . SVG Version: 6.00 Build 0)  -->
<svg version="1.1" id="分離模式" xmlns="http://www.w3.org/2000/svg" xmlns:xlink="http://www.w3.org/1999/xlink" x="0px"
	 y="0px" viewBox="0 0 99.9 129.8" style="enable-background:new 0 0 99.9 129.8;" xml:space="preserve">
<style type="text/css">
	.st0{fill:#4EEB90;}
</style>
<path class="st0" d="M64.3,53.9c7.6-4.9,12.7-13.4,12.7-23.1c0-15.2-12.3-27.5-27.5-27.5C34.3,3.3,22,15.6,22,30.8
	c0,9.7,5,18.2,12.7,23.1c-17.9,1.6-32,16.7-32,35v28.5l0.1,0.5l2,0.6c18.5,5.8,34.6,7.7,47.8,7.7c25.8,0,40.8-7.4,41.8-7.8l1.8-0.9
	h0.2V88.9C96.3,70.6,82.2,55.5,64.3,53.9z"/>
</svg>
